<svg width="429" height="100" viewBox="0 0 429 100" fill="none" xmlns="http://www.w3.org/2000/svg">
<path d="M52.0114 4.77424V14.1895C51.8545 14.3464 51.2922 14.1241 51.0307 13.9933C50.3441 13.6337 48.6769 12.7576 47.5 12.1299C46.3231 11.5022 45.4404 11.6722 45.1462 11.8357C37.202 17.2625 20.8431 28.5477 18.96 30.2738C17.077 31.9999 17.7831 33.7391 18.3716 34.393C19.81 35.766 23.4323 38.4925 26.4138 38.4141C29.3953 38.3356 32.756 36.2891 34.0636 35.2757C45.1135 27.0046 67.6054 10.188 69.1746 9.08954C70.7438 7.9911 72.9015 8.56648 73.7841 8.99147C78.9821 11.8357 89.6724 17.7986 90.8493 18.8971C92.0262 19.9955 92.3204 21.7086 92.3204 22.4278V66.5617C92.3204 68.2878 91.1435 69.8309 90.555 70.3866L60.9363 98.5343C60.1844 99.1554 58.6805 100.496 56.719 99.8092C55.1727 99.268 54.8229 97.717 54.8556 96.9651V49.5947C54.8556 46.7701 57.0787 44.4294 58.1902 43.6121L82.0225 25.272C82.1206 25.0104 82.3363 24.3108 82.4148 23.6047C83.0032 19.7798 79.3744 17.524 75.5495 16.4452C72.4896 15.5821 69.7631 16.8048 68.7823 17.524C60.6421 23.8335 43.7143 37.041 41.1251 39.3948C38.5359 41.7486 37.8886 45.1486 37.8886 46.5543V84.9018C37.7578 85.4902 37.0844 87.0791 35.4367 88.7267C33.3771 90.7863 24.9426 91.1786 19.2543 89.021C13.5659 86.8633 11.2121 84.0191 9.44673 81.8615C8.03444 80.1353 7.68138 77.0884 7.68138 75.7808C7.71407 63.3906 7.75984 37.2764 7.68138 31.9411C7.60292 26.6058 11.3756 22.8528 13.2717 21.6432L45.2442 0.36085C46.0942 0.0012407 48.2061 -0.404137 49.8538 0.851227C51.5014 2.10659 51.9787 3.98964 52.0114 4.77424Z" fill="#FF77C9"/>
<path d="M394.381 72.68V27.2H403.441V43.28C405.961 40.52 409.501 38.84 413.941 38.84C423.601 38.84 428.581 47 428.581 56.18C428.581 65.36 423.601 73.6399 413.941 73.6399C409.501 73.6399 405.961 71.9 403.441 69.1399V72.68H394.381ZM411.541 46.76C405.781 46.76 403.861 52.04 403.861 56.18C403.861 60.44 405.901 65.84 411.541 65.84C417.181 65.84 419.221 60.44 419.221 56.18C419.221 52.04 417.301 46.76 411.541 46.76Z" fill="#FF77C9"/>
<path d="M357.517 60.6799V39.9199H366.577V58.2799C366.577 62.0599 367.957 65.8399 372.757 65.8399C378.037 65.8399 379.837 61.6399 379.837 58.2799V39.9199H388.897V72.6799H379.837V69.5599C377.497 72.1399 374.197 73.7599 369.757 73.7599C360.937 73.7599 357.517 67.4599 357.517 60.6799Z" fill="#FF77C9"/>
<path d="M314.056 27.2H324.136V45.44H342.016V27.2H352.156V72.68H342.016V53.84H324.136V72.68H314.056V27.2Z" fill="#FF77C9"/>
<path d="M300.288 62.9H309.048C306.888 69.5 300.948 73.64 293.148 73.64C281.988 73.64 276.108 65.48 276.108 56.3C276.108 47.24 281.868 38.96 293.028 38.96C303.168 38.96 309.648 46.64 309.648 55.22C309.648 56.3 309.468 57.38 309.348 58.52H285.528C286.368 62.36 289.188 65.84 294.108 65.84C296.568 65.84 299.088 65 300.288 62.9ZM286.308 51.5H300.108C299.208 48.86 297.168 46.76 293.568 46.76C289.908 46.76 287.508 48.86 286.308 51.5Z" fill="#FF77C9"/>
<path d="M238.991 72.68V27.2H248.051V43.28C250.571 40.52 254.111 38.84 258.551 38.84C268.211 38.84 273.191 47 273.191 56.18C273.191 65.36 268.211 73.6399 258.551 73.6399C254.111 73.6399 250.571 71.9 248.051 69.1399V72.68H238.991ZM256.151 46.76C250.391 46.76 248.471 52.04 248.471 56.18C248.471 60.44 250.511 65.84 256.151 65.84C261.791 65.84 263.831 60.44 263.831 56.18C263.831 52.04 261.911 46.76 256.151 46.76Z" fill="#FF77C9"/>
<path d="M224.459 72.68V39.92H233.519V72.68H224.459ZM224.459 35V27.2H233.519V35H224.459Z" fill="#FF77C9"/>
<path d="M199.264 72.6798V39.9198H208.324V45.4398C210.364 41.5398 213.724 38.8398 218.764 38.8398C219.724 38.8398 221.224 38.9598 221.224 38.9598V48.1998C221.224 48.1998 218.584 47.8998 217.384 47.8998C209.464 47.8998 208.324 51.4998 208.324 54.3198V72.6798H199.264Z" fill="#FF77C9"/>
<path d="M179.525 65.8398C183.365 65.8398 186.305 63.3798 186.845 59.9598H195.185C194.885 68.1798 188.705 73.6398 179.525 73.6398C168.245 73.6398 162.905 64.8798 162.905 55.8198C162.905 46.7598 168.965 38.8398 179.825 38.8398C188.165 38.8398 195.065 44.0598 195.185 51.7998H186.725C186.125 48.8598 183.905 46.7598 180.485 46.7598C174.725 46.7598 172.085 51.7998 172.085 56.2998C172.085 60.3198 174.005 65.8398 179.525 65.8398Z" fill="#FF77C9"/>
<path d="M142.96 44.9C148.78 46.46 160.06 48.02 160.06 58.94C160.06 69.02 150.82 73.64 141.88 73.64C131.08 73.64 124.78 68.18 124 59.24H133.12C133.66 63.2 136.54 64.7 142.42 64.7C147.04 64.7 149.68 63.32 149.68 60.56C149.68 57.32 146.98 56.54 141.4 54.98C134.2 52.94 124.3 51.62 124.3 40.94C124.3 30.92 133.12 26.24 142.06 26.24C153.94 26.24 158.26 33.02 158.74 40.64H149.68C149.26 36.62 146.8 35.18 141.7 35.18C137.5 35.18 134.74 36.68 134.74 39.32C134.74 42.2 136.72 43.22 142.96 44.9Z" fill="#FF77C9"/>
</svg>
